<svg width="104" height="32" viewBox="0 0 104 32" fill="none" xmlns="http://www.w3.org/2000/svg">
<path d="M14.5851 14.5639H10.0564L12.2697 8.2647L14.5851 14.5639ZM9.27327 0.841797L0.590515 23.9958H6.75357L8.35392 19.4331H16.3557L18.0241 24.3363L24.1191 23.7234L15.4704 0.841797H9.27327Z" fill="white"/>
<path d="M37.3283 7.5156V18.6159C37.0105 18.7521 36.636 18.8996 36.2047 19.0585C35.7961 19.1947 35.3875 19.3196 34.9789 19.4331C34.593 19.5239 34.2638 19.5693 33.9914 19.5693C33.3104 19.5693 32.8451 19.365 32.5954 18.9564C32.3457 18.5478 32.2208 18.0938 32.2208 17.5944V7.5156H26.0237V18.1732C26.0237 19.399 26.228 20.5 26.6366 21.4761C27.0679 22.4295 27.7262 23.1899 28.6115 23.7574C29.4968 24.3022 30.6318 24.5746 32.0165 24.5746C32.9018 24.5746 33.7531 24.4498 34.5703 24.2001C35.4102 23.9731 36.182 23.6893 36.8857 23.3488C37.5894 23.0083 38.2136 22.6678 38.7584 22.3273L40.529 24.0298H43.5254V7.5156H37.3283Z" fill="white"/>
<path d="M52.5607 23.9958L54.7058 20.4546L56.9191 23.9958H63.8653L58.247 16.1302L63.8653 7.48155H57.0212L54.5015 11.4654L51.6073 6.9708L45.6145 8.4009L50.9603 15.7897L45.5804 23.9958H52.5607Z" fill="white"/>
<path d="M72.2974 31.1122V10.6141L69.1989 7.5156H66.1003V31.4527L72.2974 31.1122ZM70.2885 13.917C70.9468 13.236 71.5597 12.6912 72.1272 12.2826C72.6947 11.874 73.2508 11.6697 73.7956 11.6697C74.4539 11.6697 74.9987 11.8172 75.43 12.1123C75.884 12.4074 76.2245 12.8501 76.4515 13.4403C76.7012 14.0078 76.8261 14.7115 76.8261 15.5514C76.8261 16.3913 76.7012 17.1177 76.4515 17.7306C76.2018 18.3435 75.8727 18.8088 75.4641 19.1266C75.0555 19.4444 74.5901 19.6033 74.068 19.6033C73.4778 19.6033 72.8649 19.4444 72.2293 19.1266C71.5937 18.7861 70.9468 18.3094 70.2885 17.6965L68.5519 21.3399C69.1875 22.0663 69.8231 22.6565 70.4587 23.1105C71.117 23.5418 71.7753 23.8596 72.4336 24.0639C73.1146 24.2682 73.7956 24.3703 74.4766 24.3703C76.2245 24.3703 77.7454 24.0412 79.0393 23.3829C80.3559 22.7246 81.3774 21.7371 82.1038 20.4205C82.8529 19.1039 83.2275 17.4695 83.2275 15.5173C83.2275 13.5424 82.8529 11.9194 82.1038 10.6482C81.3774 9.377 80.3786 8.43495 79.1074 7.82205C77.8362 7.20915 76.3834 6.90269 74.749 6.90269C73.9091 6.90269 73.0919 7.05025 72.2974 7.34535C71.5029 7.64045 70.7765 8.02635 70.1182 8.50305C69.4826 8.95705 68.9605 9.43375 68.5519 9.93315L70.2885 13.917Z" fill="white"/>
<path d="M93.8205 24.3703C92.0499 24.3703 90.4609 24.0525 89.0535 23.4169C87.6688 22.7813 86.5792 21.8166 85.7847 20.5227C84.9902 19.2288 84.5929 17.6057 84.5929 15.6535C84.5929 13.7921 85.0129 12.2145 85.8528 10.9206C86.6927 9.6267 87.8163 8.63925 89.2237 7.95825C90.6538 7.25455 92.2315 6.90269 93.9567 6.90269C95.7727 6.90269 97.3844 7.2432 98.7918 7.9242C100.199 8.5825 101.3 9.56995 102.095 10.8865C102.912 12.2031 103.32 13.8489 103.32 15.8238C103.32 17.6625 102.889 19.2174 102.027 20.4886C101.187 21.7598 100.052 22.7246 98.6215 23.3829C97.1914 24.0412 95.5911 24.3703 93.8205 24.3703ZM93.8886 19.3309C94.5469 19.3309 95.0917 19.2061 95.523 18.9564C95.977 18.684 96.3175 18.2867 96.5445 17.7646C96.7942 17.2425 96.919 16.5956 96.919 15.8238C96.919 15.0747 96.8055 14.4164 96.5785 13.8489C96.3515 13.2587 96.0224 12.7933 95.5911 12.4528C95.1825 12.1123 94.6604 11.9421 94.0248 11.9421C93.3892 11.9421 92.8444 12.0896 92.3904 12.3847C91.9364 12.6798 91.5845 13.1111 91.3348 13.6786C91.1078 14.2234 90.9943 14.8817 90.9943 15.6535C90.9943 16.3799 91.1078 17.0269 91.3348 17.5944C91.5618 18.1392 91.891 18.5705 92.3223 18.8883C92.7536 19.1834 93.2757 19.3309 93.8886 19.3309Z" fill="white"/>
</svg>
