<svg width="27" height="22" viewBox="0 0 27 22" fill="none" xmlns="http://www.w3.org/2000/svg">
<path d="M26.674 2.58281C25.7113 3.00868 24.6903 3.28837 23.6449 3.41262C24.7467 2.75361 25.5715 1.71645 25.9653 0.494412C24.9312 1.10983 23.7974 1.54113 22.6158 1.77444C21.8221 0.925181 20.77 0.361949 19.6231 0.172305C18.4762 -0.0173391 17.2989 0.177231 16.274 0.725767C15.2491 1.2743 14.4342 2.14607 13.9559 3.20554C13.4776 4.26501 13.3627 5.45282 13.6291 6.58432C11.532 6.47921 9.48047 5.93425 7.60766 4.98481C5.73486 4.03537 4.08266 2.70268 2.75833 1.07326C2.28956 1.87842 2.04322 2.7937 2.04454 3.72538C2.04454 5.55399 2.97524 7.16947 4.39021 8.11531C3.55284 8.08895 2.7339 7.86281 2.00166 7.45575V7.52132C2.00191 8.73918 2.42334 9.91947 3.19448 10.8621C3.96562 11.8047 5.03902 12.4516 6.23269 12.6931C5.45536 12.9038 4.64029 12.9348 3.84919 12.7839C4.18574 13.8322 4.84169 14.749 5.72521 15.4059C6.60872 16.0629 7.67556 16.427 8.77635 16.4475C7.68231 17.3067 6.42965 17.9419 5.08997 18.3167C3.7503 18.6914 2.34989 18.7985 0.968811 18.6317C3.37967 20.1822 6.18615 21.0053 9.05253 21.0026C18.7543 21.0026 24.0598 12.9655 24.0598 5.99538C24.0598 5.76838 24.0535 5.53886 24.0434 5.31438C25.076 4.56801 25.9673 3.64343 26.6753 2.58407L26.674 2.58281Z" fill="url(#paint0_linear_4_177)"/>
<defs>
<linearGradient id="paint0_linear_4_177" x1="0.968811" y1="0.101639" x2="25.0254" y2="22.7547" gradientUnits="userSpaceOnUse">
<stop stop-color="#7A7A7A"/>
<stop offset="1" stop-color="#494949"/>
</linearGradient>
</defs>
</svg>
