<svg width="20" height="18" viewBox="0 0 20 18" fill="none" xmlns="http://www.w3.org/2000/svg">
<path d="M0 6.00006H19C19.2652 6.00006 19.5196 6.10542 19.7071 6.29295C19.8946 6.48049 20 6.73484 20 7.00006V17.0001C20 17.2653 19.8946 17.5196 19.7071 17.7072C19.5196 17.8947 19.2652 18.0001 19 18.0001H1C0.734784 18.0001 0.48043 17.8947 0.292893 17.7072C0.105357 17.5196 0 17.2653 0 17.0001V6.00006ZM1 6.10352e-05H16V4.00006H0V1.00006C0 0.734845 0.105357 0.480491 0.292893 0.292954C0.48043 0.105418 0.734784 6.10352e-05 1 6.10352e-05ZM13 11.0001V13.0001H16V11.0001H13Z" fill="white"/>
</svg>
