<svg width="22" height="18" viewBox="0 0 22 18" fill="none" xmlns="http://www.w3.org/2000/svg">
<path d="M11 3.05176e-05C16.392 3.05176e-05 20.878 3.88003 21.819 9.00003C20.879 14.12 16.392 18 11 18C5.60795 18 1.12195 14.12 0.180954 9.00003C1.12095 3.88003 5.60795 3.05176e-05 11 3.05176e-05ZM11 16C13.0394 15.9996 15.0183 15.3069 16.6128 14.0352C18.2073 12.7635 19.3229 10.9883 19.777 9.00003C19.3212 7.01334 18.2049 5.24004 16.6106 3.97006C15.0163 2.70008 13.0383 2.00856 11 2.00856C8.96165 2.00856 6.98364 2.70008 5.38933 3.97006C3.79502 5.24004 2.67872 7.01334 2.22295 9.00003C2.67705 10.9883 3.79263 12.7635 5.3871 14.0352C6.98157 15.3069 8.96049 15.9996 11 16ZM11 13.5C9.80648 13.5 8.66189 13.0259 7.81798 12.182C6.97406 11.3381 6.49996 10.1935 6.49996 9.00003C6.49996 7.80656 6.97406 6.66196 7.81798 5.81805C8.66189 4.97414 9.80648 4.50003 11 4.50003C12.1934 4.50003 13.338 4.97414 14.1819 5.81805C15.0258 6.66196 15.5 7.80656 15.5 9.00003C15.5 10.1935 15.0258 11.3381 14.1819 12.182C13.338 13.0259 12.1934 13.5 11 13.5ZM11 11.5C11.663 11.5 12.2989 11.2366 12.7677 10.7678C13.2366 10.299 13.5 9.66307 13.5 9.00003C13.5 8.33699 13.2366 7.7011 12.7677 7.23226C12.2989 6.76342 11.663 6.50003 11 6.50003C10.3369 6.50003 9.70103 6.76342 9.23219 7.23226C8.76335 7.7011 8.49996 8.33699 8.49996 9.00003C8.49996 9.66307 8.76335 10.299 9.23219 10.7678C9.70103 11.2366 10.3369 11.5 11 11.5Z" fill="white"/>
</svg>
